<svg width="125" height="125" viewBox="0 0 125 125" fill="none" xmlns="http://www.w3.org/2000/svg">
<path d="M118.197 56.5476C118.197 85.4299 95.1643 108.844 66.7517 108.844C38.3391 108.844 15.3061 85.4299 15.3061 56.5476C15.3061 27.6654 38.3391 4.2517 66.7517 4.2517C95.1643 4.2517 118.197 27.6654 118.197 56.5476Z" fill="#FBFEF9"/>
<path fill-rule="evenodd" clip-rule="evenodd" d="M125 62.5C125 97.0178 97.0178 125 62.5 125C27.9822 125 0 97.0178 0 62.5C0 27.9822 27.9822 0 62.5 0C97.0178 0 125 27.9822 125 62.5ZM73.7205 81.2382C73.7205 80.0507 73.5378 78.985 73.1724 78.0411C72.8375 77.0668 72.1981 76.1838 71.2542 75.3921C70.3103 74.57 68.9858 73.7631 67.2807 72.9715C65.5756 72.1798 63.3681 71.3577 60.6581 70.5051C57.6438 69.5308 54.7816 68.4347 52.0717 67.2167C49.3922 65.9988 47.0173 64.5829 44.9468 62.9692C42.9067 61.325 41.293 59.4219 40.1055 57.2601C38.9485 55.0983 38.3699 52.5863 38.3699 49.7241C38.3699 46.9533 38.9789 44.4413 40.1968 42.1882C41.4148 39.9045 43.1199 37.9558 45.3122 36.3421C47.5044 34.6979 50.0926 33.4343 53.0765 32.5513C56.0909 31.6683 59.3945 31.2267 62.9874 31.2267C67.8896 31.2267 72.1676 32.1098 75.8214 33.8758C79.4752 35.6418 82.3069 38.0624 84.3165 41.1377C86.3566 44.213 87.3766 47.7298 87.3766 51.6881H73.7662C73.7662 49.7394 73.3551 48.0342 72.533 46.5727C71.7414 45.0808 70.5234 43.9085 68.8792 43.0559C67.2654 42.2034 65.2254 41.7771 62.7591 41.7771C60.3841 41.7771 58.405 42.1425 56.8217 42.8733C55.2383 43.5736 54.0508 44.5327 53.2592 45.7506C52.4675 46.9381 52.0717 48.2778 52.0717 49.7698C52.0717 50.8964 52.3457 51.9164 52.8938 52.8299C53.4723 53.7433 54.3249 54.5959 55.4515 55.3875C56.5781 56.1792 57.9635 56.9252 59.6077 57.6255C61.2519 58.3258 63.1549 59.0109 65.3167 59.6808C68.9401 60.7769 72.122 62.0101 74.8623 63.3802C77.6331 64.7504 79.9472 66.288 81.8045 67.9932C83.6619 69.6983 85.0625 71.6317 86.0064 73.7936C86.9503 75.9554 87.4223 78.4065 87.4223 81.1469C87.4223 84.0395 86.859 86.6276 85.7324 88.9112C84.6058 91.1948 82.9768 93.1283 80.8454 94.7116C78.714 96.2949 76.1716 97.4976 73.2181 98.3197C70.2646 99.1419 66.961 99.5529 63.3072 99.5529C60.0187 99.5529 56.776 99.1266 53.5789 98.2741C50.3818 97.3911 47.474 96.0666 44.8554 94.3006C42.2673 92.5346 40.1968 90.2814 38.644 87.541C37.0911 84.8007 36.3147 81.5579 36.3147 77.8128H50.0621C50.0621 79.8833 50.3818 81.634 51.0212 83.0651C51.6607 84.4962 52.5589 85.6532 53.7159 86.5362C54.9034 87.4192 56.304 88.0586 57.9178 88.4545C59.562 88.8503 61.3585 89.0482 63.3072 89.0482C65.6821 89.0482 67.6308 88.7133 69.1532 88.0434C70.7061 87.3736 71.8479 86.4449 72.5787 85.2574C73.3399 84.0699 73.7205 82.7302 73.7205 81.2382ZM98.7275 34.8639V31.5008H90.708L98.4883 21.1721V18.6909H85.5289V22.069H93.0111L85.2898 32.3079V34.8639H98.7275Z" fill="#89A3FF"/>
</svg>
