<svg width="659" height="147" viewBox="0 0 659 147" fill="none" xmlns="http://www.w3.org/2000/svg">
<path d="M191.482 91.4404C191.482 90.3304 191.16 89.3278 190.516 88.4326C189.871 87.5374 188.672 86.7139 186.917 85.9619C185.198 85.1742 182.71 84.458 179.451 83.8135C176.515 83.1689 173.776 82.3633 171.233 81.3965C168.727 80.3939 166.543 79.1943 164.681 77.7979C162.854 76.4014 161.422 74.7542 160.384 72.8564C159.345 70.9229 158.826 68.7207 158.826 66.25C158.826 63.8151 159.345 61.5234 160.384 59.375C161.458 57.2266 162.98 55.3288 164.949 53.6816C166.954 51.9987 169.389 50.6917 172.254 49.7607C175.154 48.7939 178.413 48.3105 182.029 48.3105C187.078 48.3105 191.411 49.1162 195.027 50.7275C198.68 52.3389 201.473 54.5589 203.406 57.3877C205.376 60.1807 206.36 63.3675 206.36 66.9482H190.892C190.892 65.4443 190.569 64.1016 189.925 62.9199C189.316 61.7025 188.349 60.7536 187.024 60.0732C185.735 59.3571 184.052 58.999 181.976 58.999C180.257 58.999 178.771 59.3034 177.518 59.9121C176.264 60.485 175.298 61.2728 174.617 62.2754C173.973 63.2422 173.65 64.3164 173.65 65.498C173.65 66.3932 173.829 67.1989 174.188 67.915C174.581 68.5954 175.208 69.222 176.067 69.7949C176.927 70.3678 178.037 70.9049 179.397 71.4062C180.794 71.8717 182.513 72.3014 184.554 72.6953C188.743 73.5547 192.485 74.6826 195.779 76.0791C199.074 77.4398 201.688 79.3018 203.621 81.665C205.555 83.9925 206.521 87.054 206.521 90.8496C206.521 93.4277 205.949 95.791 204.803 97.9395C203.657 100.088 202.01 101.968 199.861 103.579C197.713 105.155 195.135 106.39 192.127 107.285C189.155 108.145 185.807 108.574 182.083 108.574C176.676 108.574 172.093 107.607 168.333 105.674C164.609 103.74 161.78 101.287 159.847 98.3154C157.949 95.3076 157 92.2282 157 89.0771H171.663C171.735 91.1898 172.272 92.8906 173.274 94.1797C174.313 95.4688 175.62 96.3997 177.195 96.9727C178.807 97.5456 180.543 97.832 182.405 97.832C184.41 97.832 186.076 97.5635 187.4 97.0264C188.725 96.4535 189.728 95.7015 190.408 94.7705C191.124 93.8037 191.482 92.6937 191.482 91.4404Z" fill="black"/>
<path d="M209.695 79.0332V77.9053C209.695 73.6442 210.303 69.7233 211.521 66.1426C212.738 62.526 214.511 59.3929 216.838 56.7432C219.166 54.0934 222.03 52.0345 225.432 50.5664C228.834 49.0625 232.737 48.3105 237.141 48.3105C241.545 48.3105 245.466 49.0625 248.904 50.5664C252.341 52.0345 255.224 54.0934 257.551 56.7432C259.914 59.3929 261.705 62.526 262.922 66.1426C264.14 69.7233 264.748 73.6442 264.748 77.9053V79.0332C264.748 83.2585 264.14 87.1794 262.922 90.7959C261.705 94.3766 259.914 97.5098 257.551 100.195C255.224 102.845 252.359 104.904 248.957 106.372C245.556 107.84 241.653 108.574 237.248 108.574C232.844 108.574 228.923 107.84 225.486 106.372C222.084 104.904 219.202 102.845 216.838 100.195C214.511 97.5098 212.738 94.3766 211.521 90.7959C210.303 87.1794 209.695 83.2585 209.695 79.0332ZM225.163 77.9053V79.0332C225.163 81.4681 225.378 83.7419 225.808 85.8545C226.238 87.9671 226.918 89.8291 227.849 91.4404C228.816 93.016 230.069 94.2513 231.609 95.1465C233.149 96.0417 235.028 96.4893 237.248 96.4893C239.397 96.4893 241.241 96.0417 242.781 95.1465C244.32 94.2513 245.556 93.016 246.487 91.4404C247.418 89.8291 248.098 87.9671 248.528 85.8545C248.993 83.7419 249.226 81.4681 249.226 79.0332V77.9053C249.226 75.542 248.993 73.3219 248.528 71.2451C248.098 69.1325 247.4 67.2705 246.433 65.6592C245.502 64.012 244.267 62.723 242.727 61.792C241.187 60.861 239.325 60.3955 237.141 60.3955C234.957 60.3955 233.095 60.861 231.555 61.792C230.051 62.723 228.816 64.012 227.849 65.6592C226.918 67.2705 226.238 69.1325 225.808 71.2451C225.378 73.3219 225.163 75.542 225.163 77.9053Z" fill="black"/>
<path d="M304.23 93.5889V49.3848H319.699V107.5H305.143L304.23 93.5889ZM305.949 81.665L310.514 81.5576C310.514 85.4248 310.067 89.0234 309.172 92.3535C308.277 95.6478 306.934 98.5124 305.143 100.947C303.353 103.346 301.097 105.226 298.376 106.587C295.654 107.912 292.45 108.574 288.762 108.574C285.933 108.574 283.319 108.18 280.92 107.393C278.556 106.569 276.515 105.298 274.797 103.579C273.114 101.825 271.789 99.5866 270.822 96.8652C269.891 94.1081 269.426 90.7959 269.426 86.9287V49.3848H284.894V87.0361C284.894 88.7549 285.091 90.2051 285.485 91.3867C285.915 92.5684 286.506 93.5352 287.258 94.2871C288.01 95.0391 288.887 95.5762 289.889 95.8984C290.928 96.2207 292.074 96.3818 293.327 96.3818C296.514 96.3818 299.02 95.7373 300.846 94.4482C302.708 93.1592 304.015 91.4046 304.767 89.1846C305.555 86.9287 305.949 84.4222 305.949 81.665Z" fill="black"/>
<path d="M342.262 61.792V107.5H326.793V49.3848H341.295L342.262 61.792ZM340.006 76.4014H335.817C335.817 72.1045 336.372 68.2373 337.482 64.7998C338.592 61.3265 340.149 58.3724 342.154 55.9375C344.16 53.4668 346.541 51.5869 349.298 50.2979C352.091 48.973 355.206 48.3105 358.644 48.3105C361.365 48.3105 363.854 48.7044 366.11 49.4922C368.365 50.2799 370.299 51.5332 371.91 53.252C373.557 54.9707 374.811 57.2445 375.67 60.0732C376.565 62.902 377.013 66.3574 377.013 70.4395V107.5H361.437V70.3857C361.437 67.8076 361.079 65.8024 360.362 64.3701C359.646 62.9378 358.59 61.9352 357.194 61.3623C355.833 60.7536 354.15 60.4492 352.145 60.4492C350.068 60.4492 348.26 60.861 346.72 61.6846C345.216 62.5081 343.963 63.654 342.96 65.1221C341.993 66.5544 341.259 68.2373 340.758 70.1709C340.257 72.1045 340.006 74.1813 340.006 76.4014Z" fill="black"/>
<path d="M418.697 94.8242V25H434.273V107.5H420.254L418.697 94.8242ZM381.959 79.1406V78.0127C381.959 73.5726 382.46 69.5443 383.462 65.9277C384.465 62.2754 385.933 59.1423 387.867 56.5283C389.8 53.9144 392.182 51.8913 395.01 50.459C397.839 49.0267 401.062 48.3105 404.678 48.3105C408.08 48.3105 411.052 49.0267 413.594 50.459C416.172 51.8913 418.357 53.9323 420.147 56.582C421.973 59.196 423.441 62.2933 424.551 65.874C425.661 69.4189 426.467 73.304 426.968 77.5293V80C426.467 84.0462 425.661 87.806 424.551 91.2793C423.441 94.7526 421.973 97.7962 420.147 100.41C418.357 102.988 416.172 104.993 413.594 106.426C411.016 107.858 408.008 108.574 404.571 108.574C400.954 108.574 397.732 107.84 394.903 106.372C392.11 104.904 389.747 102.845 387.813 100.195C385.915 97.5456 384.465 94.4303 383.462 90.8496C382.46 87.2689 381.959 83.3659 381.959 79.1406ZM397.427 78.0127V79.1406C397.427 81.5397 397.606 83.7777 397.964 85.8545C398.358 87.9313 398.985 89.7754 399.844 91.3867C400.74 92.9622 401.885 94.1976 403.282 95.0928C404.714 95.9521 406.451 96.3818 408.492 96.3818C411.142 96.3818 413.326 95.791 415.045 94.6094C416.763 93.3919 418.07 91.7269 418.965 89.6143C419.896 87.5016 420.434 85.0667 420.577 82.3096V75.2734C420.469 73.0176 420.147 70.9945 419.61 69.2041C419.109 67.3779 418.357 65.8203 417.354 64.5312C416.387 63.2422 415.17 62.2396 413.702 61.5234C412.269 60.8073 410.569 60.4492 408.599 60.4492C406.594 60.4492 404.875 60.9147 403.443 61.8457C402.011 62.7409 400.847 63.9762 399.952 65.5518C399.092 67.1273 398.448 68.9893 398.018 71.1377C397.624 73.2503 397.427 75.542 397.427 78.0127Z" fill="black"/>
<path d="M488.203 95.415V107.5H444.053V95.415H488.203ZM487.344 58.3008L450.283 107.5H439.917V98.3154L476.816 49.3848H487.344V58.3008ZM481.865 49.3848V61.5234H440.776V49.3848H481.865Z" fill="black"/>
<path d="M490.195 79.0332V77.9053C490.195 73.6442 490.803 69.7233 492.021 66.1426C493.238 62.526 495.011 59.3929 497.338 56.7432C499.666 54.0934 502.53 52.0345 505.932 50.5664C509.334 49.0625 513.237 48.3105 517.641 48.3105C522.045 48.3105 525.966 49.0625 529.404 50.5664C532.841 52.0345 535.724 54.0934 538.051 56.7432C540.414 59.3929 542.205 62.526 543.422 66.1426C544.64 69.7233 545.248 73.6442 545.248 77.9053V79.0332C545.248 83.2585 544.64 87.1794 543.422 90.7959C542.205 94.3766 540.414 97.5098 538.051 100.195C535.724 102.845 532.859 104.904 529.457 106.372C526.056 107.84 522.153 108.574 517.748 108.574C513.344 108.574 509.423 107.84 505.986 106.372C502.584 104.904 499.702 102.845 497.338 100.195C495.011 97.5098 493.238 94.3766 492.021 90.7959C490.803 87.1794 490.195 83.2585 490.195 79.0332ZM505.663 77.9053V79.0332C505.663 81.4681 505.878 83.7419 506.308 85.8545C506.738 87.9671 507.418 89.8291 508.349 91.4404C509.316 93.016 510.569 94.2513 512.109 95.1465C513.648 96.0417 515.528 96.4893 517.748 96.4893C519.897 96.4893 521.741 96.0417 523.281 95.1465C524.82 94.2513 526.056 93.016 526.987 91.4404C527.918 89.8291 528.598 87.9671 529.028 85.8545C529.493 83.7419 529.726 81.4681 529.726 79.0332V77.9053C529.726 75.542 529.493 73.3219 529.028 71.2451C528.598 69.1325 527.9 67.2705 526.933 65.6592C526.002 64.012 524.767 62.723 523.227 61.792C521.687 60.861 519.825 60.3955 517.641 60.3955C515.457 60.3955 513.595 60.861 512.055 61.792C510.551 62.723 509.316 64.012 508.349 65.6592C507.418 67.2705 506.738 69.1325 506.308 71.2451C505.878 73.3219 505.663 75.542 505.663 77.9053Z" fill="black"/>
<path d="M565.502 61.792V107.5H550.033V49.3848H564.535L565.502 61.792ZM563.246 76.4014H559.056C559.056 72.1045 559.611 68.2373 560.721 64.7998C561.832 61.3265 563.389 58.3724 565.394 55.9375C567.4 53.4668 569.781 51.5869 572.538 50.2979C575.331 48.973 578.446 48.3105 581.884 48.3105C584.605 48.3105 587.094 48.7044 589.349 49.4922C591.605 50.2799 593.539 51.5332 595.15 53.252C596.797 54.9707 598.051 57.2445 598.91 60.0732C599.805 62.902 600.253 66.3574 600.253 70.4395V107.5H584.677V70.3857C584.677 67.8076 584.318 65.8024 583.602 64.3701C582.886 62.9378 581.83 61.9352 580.433 61.3623C579.073 60.7536 577.39 60.4492 575.385 60.4492C573.308 60.4492 571.5 60.861 569.96 61.6846C568.456 62.5081 567.203 63.654 566.2 65.1221C565.233 66.5544 564.499 68.2373 563.998 70.1709C563.497 72.1045 563.246 74.1813 563.246 76.4014Z" fill="black"/>
<path d="M634.363 108.574C629.852 108.574 625.806 107.858 622.225 106.426C618.644 104.958 615.6 102.935 613.094 100.356C610.623 97.7783 608.725 94.7884 607.401 91.3867C606.076 87.9492 605.413 84.2969 605.413 80.4297V78.2812C605.413 73.877 606.04 69.8486 607.293 66.1963C608.546 62.5439 610.337 59.375 612.664 56.6895C615.028 54.0039 617.892 51.945 621.258 50.5127C624.624 49.0446 628.419 48.3105 632.645 48.3105C636.763 48.3105 640.415 48.9909 643.602 50.3516C646.789 51.7122 649.456 53.6458 651.605 56.1523C653.789 58.6589 655.436 61.6667 656.546 65.1758C657.656 68.6491 658.211 72.5163 658.211 76.7773V83.2227H612.02V72.9102H643.011V71.7285C643.011 69.5801 642.617 67.6644 641.829 65.9814C641.077 64.2627 639.932 62.902 638.392 61.8994C636.852 60.8968 634.883 60.3955 632.484 60.3955C630.443 60.3955 628.688 60.8431 627.22 61.7383C625.752 62.6335 624.552 63.8867 623.621 65.498C622.726 67.1094 622.046 69.0072 621.58 71.1914C621.151 73.3398 620.936 75.7031 620.936 78.2812V80.4297C620.936 82.7572 621.258 84.9056 621.903 86.875C622.583 88.8444 623.532 90.5452 624.749 91.9775C626.002 93.4098 627.506 94.5199 629.261 95.3076C631.051 96.0954 633.074 96.4893 635.33 96.4893C638.123 96.4893 640.719 95.9521 643.118 94.8779C645.553 93.7679 647.648 92.1029 649.403 89.8828L656.922 98.0469C655.705 99.8014 654.04 101.484 651.927 103.096C649.85 104.707 647.344 106.032 644.407 107.07C641.471 108.073 638.123 108.574 634.363 108.574Z" fill="black"/>
<path fill-rule="evenodd" clip-rule="evenodd" d="M147 73.5C147 114.093 114.093 147 73.5 147C32.907 147 0 114.093 0 73.5C0 32.907 32.907 0 73.5 0C114.093 0 147 32.907 147 73.5ZM86.6953 95.5361C86.6953 94.1396 86.4805 92.8864 86.0508 91.7764C85.6569 90.6306 84.905 89.5921 83.7949 88.6611C82.6849 87.6943 81.1273 86.7454 79.1221 85.8145C77.1169 84.8835 74.5208 83.9167 71.334 82.9141C67.7891 81.7682 64.4232 80.4792 61.2363 79.0469C58.0853 77.6146 55.2923 75.9495 52.8574 74.0518C50.4583 72.1182 48.5605 69.8802 47.1641 67.3379C45.8034 64.7956 45.123 61.8415 45.123 58.4756C45.123 55.2171 45.8392 52.263 47.2715 49.6133C48.7038 46.9277 50.709 44.636 53.2871 42.7383C55.8652 40.8047 58.9089 39.3187 62.418 38.2803C65.9629 37.2419 69.848 36.7227 74.0732 36.7227C79.8382 36.7227 84.8691 37.761 89.166 39.8379C93.4629 41.9147 96.793 44.7614 99.1562 48.3779C101.555 51.9944 102.755 56.1302 102.755 60.7852H86.749C86.749 58.4935 86.2656 56.4883 85.2988 54.7695C84.3679 53.015 82.9355 51.6364 81.002 50.6338C79.1042 49.6312 76.7051 49.1299 73.8047 49.1299C71.0117 49.1299 68.6843 49.5596 66.8223 50.4189C64.9603 51.2425 63.5638 52.3704 62.6328 53.8027C61.7018 55.1992 61.2363 56.7747 61.2363 58.5293C61.2363 59.8542 61.5586 61.0537 62.2031 62.1279C62.8835 63.2021 63.886 64.2048 65.2109 65.1357C66.5358 66.0667 68.165 66.944 70.0986 67.7676C72.0322 68.5911 74.2702 69.3968 76.8125 70.1846C81.0735 71.4736 84.8154 72.9238 88.0381 74.5352C91.2966 76.1465 94.0179 77.9548 96.2021 79.96C98.3864 81.9651 100.034 84.239 101.144 86.7812C102.254 89.3235 102.809 92.2061 102.809 95.4287C102.809 98.8304 102.146 101.874 100.821 104.56C99.4964 107.245 97.5807 109.519 95.0742 111.381C92.5677 113.243 89.5778 114.657 86.1045 115.624C82.6312 116.591 78.7461 117.074 74.4492 117.074C70.582 117.074 66.7686 116.573 63.0088 115.57C59.249 114.532 55.8294 112.974 52.75 110.897C49.7064 108.821 47.2715 106.171 45.4453 102.948C43.6191 99.7256 42.7061 95.9121 42.7061 91.5078H58.873C58.873 93.9427 59.249 96.0016 60.001 97.6846C60.7529 99.3675 61.8093 100.728 63.1699 101.767C64.5664 102.805 66.2136 103.557 68.1113 104.022C70.0449 104.488 72.1575 104.721 74.4492 104.721C77.2422 104.721 79.5339 104.327 81.3242 103.539C83.1504 102.751 84.4932 101.659 85.3525 100.263C86.2477 98.8662 86.6953 97.2907 86.6953 95.5361ZM116.104 41V37.0449H106.673L115.822 24.8984V21.9805H100.582V25.9531H109.381L100.301 37.9941V41H116.104Z" fill="black"/>
</svg>
